<svg xmlns="http://www.w3.org/2000/svg" id="draw_on_this_one" data-name="draw on this one" viewBox="0 0 37 37">
  <defs>
    <style>.cls-1{fill:#241c1c;}</style>
  </defs>
  <title>Offensive Legend Icon</title>
  <rect class="cls-1" x="14.882" y="34.293" width="7.234" height="2.373"/>
  <path class="cls-1" d="M15.541,17.824h5.917a.66.66,0,0,1,.659.659V33.1H14.882V18.483A.66.66,0,0,1,15.541,17.824Z"/>
  <path class="cls-1" d="M20.711,11.276H16.287s-.779,4.891-1.249,5.339H21.96C21.49,16.167,20.711,11.276,20.711,11.276Z"/>
  <path class="cls-1" d="M18.5.333C16.416,2.1,16.158,7.841,16.126,9.308a.37.37,0,0,0,.395.343h3.951a.371.371,0,0,0,.4-.338V9.308C20.84,7.841,20.582,2.1,18.5.333Z"/>
  <rect class="cls-1" x="23.716" y="34.293" width="7.234" height="2.373"/>
  <path class="cls-1" d="M24.375,20.175h5.917a.66.66,0,0,1,.659.659h0V33.1H23.716V20.833A.659.659,0,0,1,24.375,20.175Z"/>
  <path class="cls-1" d="M29.544,13.629H25.121s-.779,4.891-1.249,5.339h6.921C30.323,18.519,29.544,13.629,29.544,13.629Z"/>
  <path class="cls-1" d="M27.332,2.685c-2.082,1.767-2.341,7.507-2.373,8.973a.371.371,0,0,0,.4.345H29.3a.369.369,0,0,0,.4-.337v-.007C29.673,10.193,29.415,4.452,27.332,2.685Z"/>
  <rect class="cls-1" x="6.049" y="34.293" width="7.234" height="2.373"/>
  <path class="cls-1" d="M6.708,20.175h5.916a.66.66,0,0,1,.659.659h0V33.1H6.049V20.833A.659.659,0,0,1,6.708,20.175Z"/>
  <path class="cls-1" d="M11.877,13.629H7.454s-.779,4.891-1.249,5.339h6.921C12.656,18.519,11.877,13.629,11.877,13.629Z"/>
  <path class="cls-1" d="M9.666,2.685c-2.083,1.767-2.341,7.507-2.373,8.973A.37.37,0,0,0,7.687,12h3.951a.371.371,0,0,0,.4-.339v-.005C12.007,10.193,11.748,4.452,9.666,2.685Z"/>
</svg>